<svg width="14" height="13" viewBox="0 0 14 13" fill="none" xmlns="http://www.w3.org/2000/svg">
<path d="M6.79128 1.33533C8.47345 1.33533 8.67271 1.34176 9.33703 1.37207C9.95127 1.40008 10.2849 1.50271 10.5069 1.58899C10.8009 1.70328 11.0108 1.8398 11.2312 2.06024C11.4517 2.28071 11.5882 2.49058 11.7025 2.78465C11.7888 3.00664 11.8914 3.34023 11.9194 3.95447C11.9497 4.61879 11.9562 4.81805 11.9562 6.50021C11.9562 8.1824 11.9497 8.38167 11.9194 9.04598C11.8914 9.66023 11.7888 9.99381 11.7025 10.2158C11.5882 10.5099 11.4517 10.7197 11.2313 10.9402C11.0108 11.1607 10.8009 11.2972 10.5069 11.4115C10.2849 11.4977 9.95127 11.6004 9.33703 11.6284C8.67281 11.6587 8.47357 11.6651 6.79128 11.6651C5.10896 11.6651 4.90974 11.6587 4.2455 11.6284C3.63125 11.6004 3.29767 11.4977 3.07567 11.4115C2.7816 11.2972 2.57173 11.1607 2.35129 10.9402C2.13084 10.7197 1.9943 10.5099 1.88001 10.2158C1.79373 9.99381 1.6911 9.66023 1.66309 9.04598C1.63278 8.38167 1.62635 8.1824 1.62635 6.50021C1.62635 4.81805 1.63278 4.61879 1.66309 3.95447C1.6911 3.34023 1.79373 3.00664 1.88001 2.78465C1.9943 2.49058 2.13082 2.28071 2.35129 2.06027C2.57173 1.8398 2.7816 1.70328 3.07567 1.58899C3.29767 1.50271 3.63125 1.40008 4.2455 1.37207C4.90982 1.34176 5.10908 1.33533 6.79128 1.33533ZM6.79128 0.200195C5.08027 0.200195 4.86573 0.207448 4.19376 0.238107C3.52319 0.268692 3.06522 0.375201 2.66449 0.530926C2.25021 0.691928 1.89887 0.907347 1.5486 1.25758C1.19836 1.60785 0.982945 1.95918 0.821968 2.37347C0.666218 2.7742 0.559708 3.23217 0.529123 3.90273C0.498463 4.5747 0.491211 4.78924 0.491211 6.50021C0.491211 8.21121 0.498463 8.42576 0.529123 9.09772C0.559708 9.76829 0.666218 10.2263 0.821968 10.627C0.982945 11.0413 1.19836 11.3926 1.5486 11.7429C1.89887 12.0931 2.25021 12.3085 2.66449 12.4695C3.06522 12.6253 3.52319 12.7318 4.19376 12.7623C4.86573 12.793 5.08027 12.8003 6.79128 12.8003C8.50226 12.8003 8.7168 12.793 9.38877 12.7623C10.0593 12.7318 10.5173 12.6253 10.918 12.4695C11.3323 12.3085 11.6837 12.0931 12.0339 11.7429C12.3842 11.3926 12.5996 11.0413 12.7606 10.627C12.9163 10.2263 13.0228 9.76829 13.0534 9.09772C13.0841 8.42576 13.0913 8.21121 13.0913 6.50021C13.0913 4.78924 13.0841 4.5747 13.0534 3.90273C13.0228 3.23217 12.9163 2.7742 12.7606 2.37347C12.5996 1.95918 12.3842 1.60785 12.0339 1.25758C11.6837 0.907347 11.3323 0.691928 10.918 0.530926C10.5173 0.375201 10.0593 0.268692 9.38877 0.238107C8.7168 0.207448 8.50226 0.200195 6.79128 0.200195Z" fill="white"/>
<path d="M6.79426 3.26807C5.0075 3.26807 3.55908 4.71648 3.55908 6.5032C3.55908 8.28995 5.0075 9.73837 6.79426 9.73837C8.58098 9.73837 10.0294 8.28995 10.0294 6.5032C10.0294 4.71648 8.58098 3.26807 6.79426 3.26807ZM6.79426 8.60323C5.63443 8.60323 4.69422 7.66303 4.69422 6.5032C4.69422 5.34341 5.63443 4.40321 6.79426 4.40321C7.95406 4.40321 8.89426 5.34341 8.89426 6.5032C8.89426 7.66303 7.95406 8.60323 6.79426 8.60323Z" fill="white"/>
<path d="M10.9129 3.13834C10.9129 3.55585 10.5744 3.89434 10.1569 3.89434C9.73936 3.89434 9.40088 3.55585 9.40088 3.13834C9.40088 2.72081 9.73936 2.38232 10.1569 2.38232C10.5744 2.38232 10.9129 2.72081 10.9129 3.13834Z" fill="white"/>
</svg>
