<svg width="22" height="22" viewBox="0 0 22 22" fill="none" xmlns="http://www.w3.org/2000/svg">
<g clip-path="url(#clip0_471_160)">
<path d="M11 12.8335C12.5188 12.8335 13.75 11.6023 13.75 10.0835C13.75 8.56471 12.5188 7.3335 11 7.3335C9.48122 7.3335 8.25 8.56471 8.25 10.0835C8.25 11.6023 9.48122 12.8335 11 12.8335Z" stroke="white" stroke-width="1.5" stroke-linecap="round" stroke-linejoin="round"/>
<path d="M16.1854 15.2691L12.296 19.1586C11.9522 19.502 11.4862 19.6949 11.0003 19.6949C10.5144 19.6949 10.0484 19.502 9.70459 19.1586L5.81426 15.2691C4.78871 14.2435 4.09032 12.9369 3.80739 11.5143C3.52446 10.0918 3.66971 8.61736 4.22476 7.27739C4.77981 5.93742 5.71975 4.79213 6.9257 3.98635C8.13165 3.18057 9.54946 2.75049 10.9998 2.75049C12.4502 2.75049 13.868 3.18057 15.074 3.98635C16.2799 4.79213 17.2199 5.93742 17.7749 7.27739C18.33 8.61736 18.4752 10.0918 18.1923 11.5143C17.9094 12.9369 17.211 14.2435 16.1854 15.2691V15.2691Z" stroke="white" stroke-width="1.5" stroke-linecap="round" stroke-linejoin="round"/>
</g>
<defs>
<clipPath id="clip0_471_160">
<rect width="22" height="22" fill="white"/>
</clipPath>
</defs>
</svg>
