<svg width="57" height="57" viewBox="0 0 57 57" fill="none" xmlns="http://www.w3.org/2000/svg">
<g clip-path="url(#clip0_471_1024)">
<path d="M28.5 33.25C32.435 33.25 35.625 30.06 35.625 26.125C35.625 22.19 32.435 19 28.5 19C24.565 19 21.375 22.19 21.375 26.125C21.375 30.06 24.565 33.25 28.5 33.25Z" stroke="#69C706" stroke-width="3" stroke-linecap="round" stroke-linejoin="round"/>
<path d="M41.9354 39.5604L31.8583 49.6375C30.9676 50.5273 29.7601 51.0271 28.5012 51.0271C27.2422 51.0271 26.0348 50.5273 25.1441 49.6375L15.0646 39.5604C12.4075 36.9032 10.5981 33.5177 9.86502 29.8321C9.13198 26.1465 9.5083 22.3263 10.9464 18.8545C12.3845 15.3828 14.8198 12.4154 17.9443 10.3277C21.0688 8.24004 24.7422 7.12573 28.5 7.12573C32.2578 7.12573 35.9312 8.24004 39.0557 10.3277C42.1803 12.4154 44.6155 15.3828 46.0536 18.8545C47.4917 22.3263 47.868 26.1465 47.135 29.8321C46.402 33.5177 44.5925 36.9032 41.9354 39.5604V39.5604Z" stroke="#69C706" stroke-width="3" stroke-linecap="round" stroke-linejoin="round"/>
</g>
<defs>
<clipPath id="clip0_471_1024">
<rect width="57" height="57" fill="white"/>
</clipPath>
</defs>
</svg>
