<svg width="29" height="24" viewBox="0 0 29 24" fill="none" xmlns="http://www.w3.org/2000/svg">
<path d="M22.1745 0.280001C24.0745 0.280002 25.6579 1.135 26.9245 2.845C28.1279 4.61834 28.7295 6.835 28.7295 9.495C28.7295 13.1683 27.6845 16.3983 25.5945 19.185C25.0245 19.8817 24.3595 20.5783 23.5995 21.275C22.7762 21.9717 21.8262 22.7 20.7495 23.46L19.6095 21.465C20.3062 20.7683 20.9395 20.135 21.5095 19.565C22.0162 19.0583 22.4912 18.5517 22.9345 18.045C24.2012 16.2083 24.8345 14.6567 24.8345 13.39C24.8345 12.06 23.5362 11.11 20.9395 10.54C19.7995 10.2233 18.8812 9.59 18.1845 8.64C17.4245 7.69 17.0445 6.58167 17.0445 5.315C17.0445 3.85833 17.5512 2.655 18.5645 1.705C19.5145 0.755001 20.7179 0.280001 22.1745 0.280001ZM5.73953 0.28C7.63953 0.28 9.22287 1.135 10.4895 2.845C11.6929 4.61833 12.2945 6.835 12.2945 9.495C12.2945 13.1683 11.2495 16.3983 9.15953 19.185C8.58953 19.8817 7.92453 20.5783 7.16453 21.275C6.3412 21.9717 5.3912 22.7 4.31453 23.46L3.17453 21.465C3.8712 20.7683 4.50453 20.135 5.07453 19.565C5.5812 19.0583 6.0562 18.5517 6.49953 18.045C7.7662 16.2083 8.39953 14.6567 8.39953 13.39C8.39953 12.06 7.1012 11.11 4.50454 10.54C3.36454 10.2233 2.4462 9.59 1.74953 8.64C0.989535 7.69 0.609535 6.58167 0.609535 5.315C0.609535 3.85833 1.1162 2.655 2.12954 1.705C3.07954 0.754999 4.28287 0.28 5.73953 0.28Z" fill="#69C706"/>
</svg>
