<svg width="25" height="37" viewBox="0 0 25 37" fill="none" xmlns="http://www.w3.org/2000/svg">
<path d="M2 17.0857C2.36716 20.225 3.63034 23.0949 5.55844 25.1703C7.48654 27.2457 9.95066 28.3878 12.5 28.3878M12.5 28.3878C15.0493 28.3878 17.5135 27.2457 19.4416 25.1703C21.3697 23.0949 22.6328 20.225 23 17.0857M12.5 28.3878V35M12.5015 2C11.2958 2 10.1395 2.59602 9.28693 3.65694C8.43437 4.71786 7.95541 6.15678 7.95541 7.65714V15.2C7.95541 16.7004 8.43437 18.1393 9.28693 19.2002C10.1395 20.2611 11.2958 20.8571 12.5015 20.8571C13.7072 20.8571 14.8635 20.2611 15.7161 19.2002C16.5687 18.1393 17.0476 16.7004 17.0476 15.2V7.65714C17.0476 6.15678 16.5687 4.71786 15.7161 3.65694C14.8635 2.59602 13.7072 2 12.5015 2Z" stroke="white" stroke-width="3" stroke-linecap="round" stroke-linejoin="round"/>
</svg>
