<svg width="14" height="11" viewBox="0 0 14 11" fill="none" xmlns="http://www.w3.org/2000/svg">
<path fill-rule="evenodd" clip-rule="evenodd" d="M13.5659 1.46205C13.1027 1.66784 12.6042 1.80643 12.0813 1.869C12.6151 1.54898 13.025 1.04249 13.2178 0.438988C12.7188 0.73549 12.1649 0.950099 11.5765 1.06643C11.1049 0.564142 10.4325 0.25 9.68955 0.25C8.26205 0.25 7.1046 1.40745 7.1046 2.83495C7.1046 3.03738 7.1277 3.23477 7.1718 3.42417C5.0232 3.31666 3.11862 2.2873 1.84357 0.723312C1.62098 1.10507 1.49373 1.54899 1.49373 2.02272C1.49373 2.91937 1.9494 3.7106 2.64362 4.17426C2.21945 4.16082 1.82131 4.04448 1.47231 3.85087V3.88321C1.47231 5.136 2.36392 6.18048 3.54573 6.4186C3.32902 6.4774 3.10056 6.50932 2.86495 6.50932C2.69822 6.50932 2.53611 6.49294 2.3782 6.4627C2.70704 7.48954 3.66206 8.2371 4.79306 8.2581C3.90859 8.95106 2.79397 9.36473 1.58276 9.36473C1.37362 9.36473 1.16783 9.35255 0.96582 9.32819C2.10983 10.0615 3.46845 10.4898 4.92829 10.4898C9.68283 10.4898 12.2829 6.55089 12.2829 3.13523C12.2829 3.0231 12.2808 2.91139 12.2753 2.80093C12.781 2.43555 13.2194 1.9803 13.5659 1.46205Z" fill="white"/>
</svg>
