<svg width="31" height="31" viewBox="0 0 31 31" fill="none" xmlns="http://www.w3.org/2000/svg">
<path d="M21.1607 28.9997L21.1611 23.9377C21.1614 21.1416 19.1377 18.8748 16.6414 18.8748H6.52027C4.02427 18.8748 2.00079 21.141 2.00051 23.9367L2 28.9997M28.9996 29L29 23.938C29.0002 21.1419 26.9766 18.8751 24.4802 18.8751M20.2902 2.99453C21.4001 3.91696 22.1194 5.39575 22.1194 7.06272C22.1194 8.72969 21.4001 10.2085 20.2902 11.1309M16.1944 7.06245C16.1944 9.85836 14.1708 12.1249 11.6746 12.1249C9.17844 12.1249 7.15487 9.85836 7.15487 7.06245C7.15487 4.26653 9.17844 2 11.6746 2C14.1708 2 16.1944 4.26653 16.1944 7.06245Z" stroke="white" stroke-width="3" stroke-linecap="round" stroke-linejoin="round"/>
</svg>
